<?xml version="1.0" standalone="no"?>
<!DOCTYPE svg PUBLIC "-//W3C//DTD SVG 20010904//EN"
 "http://www.w3.org/TR/2001/REC-SVG-20010904/DTD/svg10.dtd">
<svg version="1.0" xmlns="http://www.w3.org/2000/svg"
 width="600.000000pt" height="600.000000pt" viewBox="0 0 600.000000 600.000000"
 preserveAspectRatio="xMidYMid meet">
<g transform="translate(0.000000,600.000000) scale(0.100000,-0.100000)"
fill="currentColor" stroke="none">
<path d="M1379 4646 c-2 -2 -3 -160 -1 -350 l3 -346 144 0 145 0 0 219 0 220
1330 0 1330 0 0 -220 0 -219 145 0 145 0 0 350 0 350 -1618 0 c-890 0 -1621
-2 -1623 -4z"/>
<path d="M1840 4085 l0 -136 398 1 397 2 3 -1036 c1 -570 -1 -1036 -4 -1036
-42 0 -354 335 -477 513 -236 342 -423 856 -462 1272 -3 39 -9 82 -11 98 l-6
27 -149 0 c-174 0 -157 22 -134 -170 120 -983 625 -1778 1403 -2211 58 -32
110 -59 114 -59 5 0 8 646 8 1435 l0 1435 -540 0 -540 0 0 -135z"/>
<path d="M3080 2785 c0 -789 3 -1435 8 -1435 15 0 221 119 309 178 602 405
1022 1069 1172 1852 20 108 51 338 51 384 l0 26 -149 0 -150 0 -6 -57 c-73
-651 -310 -1205 -689 -1612 -74 -80 -246 -241 -258 -241 -4 0 -7 466 -6 1036
l3 1036 398 -2 397 -1 0 136 0 135 -540 0 -540 0 0 -1435z"/>
<path d="M2198 3468 l-268 -273 270 -270 270 -270 0 145 0 146 -130 126 -130
127 130 128 131 128 -3 143 -3 144 -267 -274z"/>
<path d="M3530 3600 l0 -144 131 -128 132 -127 -132 -128 -131 -128 0 -145 0
-145 272 273 272 272 -272 273 -272 272 0 -145z"/>
</g>
</svg>
