<svg xmlns="http://www.w3.org/2000/svg" version="1.1" xmlns:xlink="http://www.w3.org/1999/xlink" viewBox="0 0 200 200"><rect width="200" height="200" fill="url('#gradient')"></rect><defs><linearGradient id="gradient" gradientTransform="rotate(45 0.5 0.5)"><stop offset="0%" stop-color="#000000"></stop><stop offset="100%" stop-color="#444444"></stop></linearGradient></defs><g><g fill="#ffffff" transform="matrix(3.213389121338912,0,0,3.213389121338912,8.868908959452583,122.84657194823899)" stroke="#ffffff" stroke-width="0.2"><path d="M12.24-14.22L12.24-11.57L7.97-11.57L7.97 0L4.54 0L4.54-11.57L0.35-11.57L0.35-14.22L12.24-14.22ZM17.33-14.22L17.33 0L13.92 0L13.92-14.22L17.33-14.22ZM30.60-14.22L30.60-11.57L26.33-11.57L26.33 0L22.90 0L22.90-11.57L18.71-11.57L18.71-14.22L30.60-14.22ZM39.78 0L38.95-2.66L34.25-2.66L33.43 0L29.77 0L34.98-14.22L38.20-14.22L43.46 0L39.78 0ZM36.59-10.23L35.07-5.30L38.13-5.30L36.59-10.23ZM56.37-14.22L56.37 0L52.96 0L47.92-8.85L47.92 0L44.49 0L44.49-14.22L47.92-14.22L52.95-5.37L52.95-14.22L56.37-14.22Z"></path></g></g></svg>