<svg width="300" height="200" viewBox="0 0 300 200" fill="none" xmlns="http://www.w3.org/2000/svg">
  <!-- Saturn planet -->
  <ellipse cx="150" cy="100" rx="60" ry="60" fill="url(#saturnGradient)"/>
  
  <!-- Saturn rings -->
  <ellipse cx="150" cy="100" rx="110" ry="25" transform="rotate(15 150 100)" fill="url(#ringsGradient)" style="mix-blend-mode:screen"/>
  <ellipse cx="150" cy="100" rx="100" ry="20" transform="rotate(15 150 100)" fill="url(#ringsGradient2)" style="mix-blend-mode:screen"/>
  
  <!-- Titan moon -->
  <circle cx="240" cy="70" r="15" fill="url(#titanGradient)"/>
  
  <!-- Stars -->
  <circle cx="50" cy="40" r="1.5" fill="white" opacity="0.8"/>
  <circle cx="80" cy="30" r="1" fill="white" opacity="0.6"/>
  <circle cx="120" cy="20" r="1.2" fill="white" opacity="0.7"/>
  <circle cx="200" cy="30" r="1" fill="white" opacity="0.6"/>
  <circle cx="250" cy="40" r="1.3" fill="white" opacity="0.8"/>
  <circle cx="270" cy="90" r="1" fill="white" opacity="0.7"/>
  <circle cx="220" cy="150" r="1.2" fill="white" opacity="0.6"/>
  <circle cx="180" cy="170" r="1" fill="white" opacity="0.8"/>
  <circle cx="100" cy="160" r="1.5" fill="white" opacity="0.7"/>
  <circle cx="60" cy="130" r="1" fill="white" opacity="0.6"/>
  <circle cx="30" cy="100" r="1.2" fill="white" opacity="0.8"/>
  
  <defs>
    <radialGradient id="saturnGradient" cx="0" cy="0" r="1" gradientUnits="userSpaceOnUse" gradientTransform="translate(150 100) rotate(90) scale(60)">
      <stop offset="0" stop-color="#F2C94C"/>
      <stop offset="1" stop-color="#E6A026"/>
    </radialGradient>
    <linearGradient id="ringsGradient" x1="40" y1="100" x2="260" y2="100" gradientUnits="userSpaceOnUse">
      <stop offset="0" stop-color="#D3D3D3" stop-opacity="0"/>
      <stop offset="0.5" stop-color="#D3D3D3" stop-opacity="0.5"/>
      <stop offset="1" stop-color="#D3D3D3" stop-opacity="0"/>
    </linearGradient>
    <linearGradient id="ringsGradient2" x1="50" y1="100" x2="250" y2="100" gradientUnits="userSpaceOnUse">
      <stop offset="0" stop-color="#E6E6E6" stop-opacity="0"/>
      <stop offset="0.5" stop-color="#E6E6E6" stop-opacity="0.7"/>
      <stop offset="1" stop-color="#E6E6E6" stop-opacity="0"/>
    </linearGradient>
    <radialGradient id="titanGradient" cx="0" cy="0" r="1" gradientUnits="userSpaceOnUse" gradientTransform="translate(240 70) rotate(90) scale(15)">
      <stop offset="0" stop-color="#B8B8B8"/>
      <stop offset="1" stop-color="#8F8F8F"/>
    </radialGradient>
  </defs>
</svg> 