<svg width="48" height="48" viewBox="0 0 48 48" fill="none" xmlns="http://www.w3.org/2000/svg">
  <circle cx="24" cy="24" r="22" fill="url(#glow_gradient)" opacity="0.3"/>
  <circle cx="24" cy="24" r="12" fill="url(#planet_gradient)"/>
  <ellipse cx="24" cy="24" rx="20" ry="6" transform="rotate(-20 24 24)" fill="url(#ring_gradient)" fillOpacity="0.9"/>
  <path d="M24 36C30.6274 36 36 30.6274 36 24C36 17.3726 30.6274 12 24 12C17.3726 12 12 17.3726 12 24C12 30.6274 17.3726 36 24 36Z" fill="url(#planet_gradient)"/>
  <circle cx="12" cy="18" r="1" fill="white"/>
  <circle cx="38" cy="14" r="0.8" fill="white"/>
  <circle cx="35" cy="32" r="1.2" fill="white"/>
  <circle cx="16" cy="38" r="0.7" fill="white"/>
  <circle cx="28" cy="8" r="0.9" fill="white"/>
  <path d="M14 11L16 13M14 13L16 11" stroke="white" strokeWidth="0.6"/>
  <path d="M37 25L39 27M37 27L39 25" stroke="white" strokeWidth="0.6"/>
  <path d="M10 30L12 32M10 32L12 30" stroke="white" strokeWidth="0.6"/>
  <defs>
    <linearGradient id="planet_gradient" x1="12" y1="12" x2="36" y2="36" gradientUnits="userSpaceOnUse">
      <stop stopColor="#6C9AFF"/>
      <stop offset="1" stopColor="#4361EE"/>
    </linearGradient>
    <linearGradient id="ring_gradient" x1="4" y1="24" x2="44" y2="24" gradientUnits="userSpaceOnUse">
      <stop offset="0.1" stopColor="#6C9AFF" stopOpacity="0.2"/>
      <stop offset="0.4" stopColor="#FFFFFF" stopOpacity="0.6"/>
      <stop offset="0.6" stopColor="#FFFFFF" stopOpacity="0.6"/>
      <stop offset="0.9" stopColor="#6C9AFF" stopOpacity="0.2"/>
    </linearGradient>
    <radialGradient id="glow_gradient" cx="0" cy="0" r="1" gradientUnits="userSpaceOnUse" 
                    gradientTransform="translate(24 24) rotate(90) scale(24)">
      <stop offset="0.4" stopColor="#6C9AFF" stopOpacity="0.8"/>
      <stop offset="1" stopColor="#6C9AFF" stopOpacity="0"/>
    </radialGradient>
  </defs>
</svg> 